<?xml version="1.0" encoding="UTF-8"?>
<svg width="18px" height="15px" viewBox="0 0 18 15" version="1.1" xmlns="http://www.w3.org/2000/svg" xmlns:xlink="http://www.w3.org/1999/xlink">
    <!-- Generator: Sketch 53.2 (72643) - https://sketchapp.com -->
    <title>history</title>
    <desc>Created with Sketch.</desc>
    <defs>
        <path d="M9.83504848,12.7596505 C9.78226061,12.7596505 9.72789697,12.7573032 9.67353333,12.7518264 C8.9802,12.6837569 8.43656364,12.1978819 8.28686667,11.5132755 L6.17298788,1.81768287 L3.99607879,6.81100694 C3.87080606,7.09736806 3.58638182,7.28279861 3.27280606,7.28279861 L0.909169697,7.28279861 C0.473472727,7.28279861 0.121290909,6.93228009 0.121290909,6.5003912 C0.121290909,6.06771991 0.473472727,5.7179838 0.909169697,5.7179838 L2.75595758,5.7179838 L4.73038182,1.18862731 C5.01007879,0.55018287 5.6262,0.178539352 6.32662424,0.248173611 C7.01995758,0.316243056 7.56359394,0.802118056 7.71329091,1.48672454 L9.8271697,11.1823171 L12.0040788,6.18899306 C12.1293515,5.90263194 12.4129879,5.7179838 12.7273515,5.7179838 L15.0909879,5.7179838 C15.5266848,5.7179838 15.8788667,6.06771991 15.8788667,6.5003912 C15.8788667,6.93228009 15.5266848,7.28279861 15.0909879,7.28279861 L13.2442,7.28279861 L11.2697758,11.8113727 C11.0121394,12.4005255 10.4598364,12.7596505 9.83504848,12.7596505" id="path-1"></path>
    </defs>
    <g id="Page-1" stroke="none" stroke-width="1" fill="none" fill-rule="evenodd" opacity="0.5">
        <g id="Dashboard01_new01" transform="translate(-53.000000, -527.000000)">
            <g id="history" transform="translate(54.000000, 528.000000)">
                <mask id="mask-2" fill="white">
                    <use xlink:href="#path-1"></use>
                </mask>
                <use id="Color" stroke="#FFFFFF" stroke-width="0.5" fill="#FFFFFF" xlink:href="#path-1"></use>
            </g>
        </g>
    </g>
</svg>