<svg width="246" height="82" viewBox="0 0 246 82" fill="none" xmlns="http://www.w3.org/2000/svg">
	<g clip-path="url(#clip0)">
		<path d="M105.557 46.2852C105.557 45.2891 105.205 44.5273 104.502 44C103.799 43.4609 102.533 42.8984 100.705 42.3125C98.877 41.7148 97.4297 41.1289 96.3633 40.5547C93.457 38.9844 92.0039 36.8691 92.0039 34.209C92.0039 32.8262 92.3906 31.5957 93.1641 30.5176C93.9492 29.4277 95.0684 28.5781 96.5215 27.9688C97.9863 27.3594 99.627 27.0547 101.443 27.0547C103.271 27.0547 104.9 27.3887 106.33 28.0566C107.76 28.7129 108.867 29.6445 109.652 30.8516C110.449 32.0586 110.848 33.4297 110.848 34.9648H105.574C105.574 33.793 105.205 32.8848 104.467 32.2402C103.729 31.584 102.691 31.2559 101.355 31.2559C100.066 31.2559 99.0645 31.5312 98.3496 32.082C97.6348 32.6211 97.2773 33.3359 97.2773 34.2266C97.2773 35.0586 97.6934 35.7559 98.5254 36.3184C99.3691 36.8809 100.605 37.4082 102.234 37.9004C105.234 38.8027 107.42 39.9219 108.791 41.2578C110.162 42.5938 110.848 44.2578 110.848 46.25C110.848 48.4648 110.01 50.2051 108.334 51.4707C106.658 52.7246 104.402 53.3516 101.566 53.3516C99.5977 53.3516 97.8047 52.9941 96.1875 52.2793C94.5703 51.5527 93.334 50.5625 92.4785 49.3086C91.6348 48.0547 91.2129 46.6016 91.2129 44.9492H96.5039C96.5039 47.7734 98.1914 49.1855 101.566 49.1855C102.82 49.1855 103.799 48.9336 104.502 48.4297C105.205 47.9141 105.557 47.1992 105.557 46.2852ZM125.49 51.0664C124.236 52.5898 122.502 53.3516 120.287 53.3516C118.248 53.3516 116.689 52.7656 115.611 51.5938C114.545 50.4219 114 48.7051 113.977 46.4434V33.9805H119.057V46.2676C119.057 48.248 119.959 49.2383 121.764 49.2383C123.486 49.2383 124.67 48.6406 125.314 47.4453V33.9805H130.412V53H125.631L125.49 51.0664ZM151.383 43.666C151.383 46.7129 150.732 49.0918 149.432 50.8027C148.131 52.502 146.314 53.3516 143.982 53.3516C141.92 53.3516 140.273 52.5605 139.043 50.9785L138.814 53H134.244V26H139.324V35.6855C140.496 34.3145 142.037 33.6289 143.947 33.6289C146.268 33.6289 148.084 34.4844 149.396 36.1953C150.721 37.8945 151.383 40.291 151.383 43.3848V43.666ZM146.303 43.2969C146.303 41.375 145.998 39.9746 145.389 39.0957C144.779 38.2051 143.871 37.7598 142.664 37.7598C141.047 37.7598 139.934 38.4219 139.324 39.7461V47.252C139.945 48.5879 141.07 49.2559 142.699 49.2559C144.34 49.2559 145.418 48.4473 145.934 46.8301C146.18 46.0566 146.303 44.8789 146.303 43.2969ZM161.438 46.7949L164.971 33.9805H170.279L163.863 53H159.012L152.596 33.9805H157.904L161.438 46.7949ZM177.891 53H172.793V33.9805H177.891V53ZM172.494 29.0586C172.494 28.2969 172.746 27.6699 173.25 27.1777C173.766 26.6855 174.463 26.4395 175.342 26.4395C176.209 26.4395 176.9 26.6855 177.416 27.1777C177.932 27.6699 178.189 28.2969 178.189 29.0586C178.189 29.832 177.926 30.4648 177.398 30.957C176.883 31.4492 176.197 31.6953 175.342 31.6953C174.486 31.6953 173.795 31.4492 173.268 30.957C172.752 30.4648 172.494 29.832 172.494 29.0586ZM192.393 47.7441C192.393 47.123 192.082 46.6367 191.461 46.2852C190.852 45.9219 189.867 45.5996 188.508 45.3184C183.984 44.3691 181.723 42.4473 181.723 39.5527C181.723 37.8652 182.42 36.459 183.814 35.334C185.221 34.1973 187.055 33.6289 189.316 33.6289C191.73 33.6289 193.658 34.1973 195.1 35.334C196.553 36.4707 197.279 37.9473 197.279 39.7637H192.199C192.199 39.0371 191.965 38.4395 191.496 37.9707C191.027 37.4902 190.295 37.25 189.299 37.25C188.443 37.25 187.781 37.4434 187.312 37.8301C186.844 38.2168 186.609 38.709 186.609 39.3066C186.609 39.8691 186.873 40.3262 187.4 40.6777C187.939 41.0176 188.842 41.3164 190.107 41.5742C191.373 41.8203 192.439 42.1016 193.307 42.418C195.99 43.4023 197.332 45.1074 197.332 47.5332C197.332 49.2676 196.588 50.6738 195.1 51.752C193.611 52.8184 191.689 53.3516 189.334 53.3516C187.74 53.3516 186.322 53.0703 185.08 52.5078C183.85 51.9336 182.883 51.1543 182.18 50.1699C181.477 49.1738 181.125 48.1016 181.125 46.9531H185.941C185.988 47.8555 186.322 48.5469 186.943 49.0273C187.564 49.5078 188.396 49.748 189.439 49.748C190.412 49.748 191.145 49.5664 191.637 49.2031C192.141 48.8281 192.393 48.3418 192.393 47.7441ZM200.883 50.5039C200.883 49.6953 201.152 49.0391 201.691 48.5352C202.242 48.0312 202.928 47.7793 203.748 47.7793C204.58 47.7793 205.266 48.0312 205.805 48.5352C206.355 49.0391 206.631 49.6953 206.631 50.5039C206.631 51.3008 206.361 51.9512 205.822 52.4551C205.283 52.9473 204.592 53.1934 203.748 53.1934C202.916 53.1934 202.23 52.9473 201.691 52.4551C201.152 51.9512 200.883 51.3008 200.883 50.5039ZM216.457 53H211.359V33.9805H216.457V53ZM211.061 29.0586C211.061 28.2969 211.312 27.6699 211.816 27.1777C212.332 26.6855 213.029 26.4395 213.908 26.4395C214.775 26.4395 215.467 26.6855 215.982 27.1777C216.498 27.6699 216.756 28.2969 216.756 29.0586C216.756 29.832 216.492 30.4648 215.965 30.957C215.449 31.4492 214.764 31.6953 213.908 31.6953C213.053 31.6953 212.361 31.4492 211.834 30.957C211.318 30.4648 211.061 29.832 211.061 29.0586ZM219.867 43.3145C219.867 41.4277 220.23 39.7461 220.957 38.2695C221.684 36.793 222.727 35.6504 224.086 34.8418C225.457 34.0332 227.045 33.6289 228.85 33.6289C231.416 33.6289 233.508 34.4141 235.125 35.9844C236.754 37.5547 237.662 39.6875 237.85 42.3828L237.885 43.6836C237.885 46.6016 237.07 48.9453 235.441 50.7148C233.812 52.4727 231.627 53.3516 228.885 53.3516C226.143 53.3516 223.951 52.4727 222.311 50.7148C220.682 48.957 219.867 46.5664 219.867 43.543V43.3145ZM224.947 43.6836C224.947 45.4883 225.287 46.8711 225.967 47.832C226.646 48.7812 227.619 49.2559 228.885 49.2559C230.115 49.2559 231.076 48.7871 231.768 47.8496C232.459 46.9004 232.805 45.3887 232.805 43.3145C232.805 41.5449 232.459 40.1738 231.768 39.2012C231.076 38.2285 230.104 37.7422 228.85 37.7422C227.607 37.7422 226.646 38.2285 225.967 39.2012C225.287 40.1621 224.947 41.6562 224.947 43.6836Z" fill="white" />
		<path fill-rule="evenodd" clip-rule="evenodd" d="M0 24.429L21.3125 34.6077L62 10.1787L40.6875 0L0 24.429Z" fill="white" />
		<path fill-rule="evenodd" clip-rule="evenodd" d="M0 71.8213L21.3125 82L62 57.571L40.6875 47.3923L0 71.8213Z" fill="white" />
		<path fill-rule="evenodd" clip-rule="evenodd" d="M0 24.429V48.858L21.3125 59.0367V34.6077L0 24.429Z" fill="white" fill-opacity="0.7" />
		<path fill-rule="evenodd" clip-rule="evenodd" d="M40.6875 47.3845L62 34.6077V57.6117L40.6875 47.3845Z" fill="white" fill-opacity="0.7" />
		<path fill-rule="evenodd" clip-rule="evenodd" d="M21.3125 34.6077V59.0367L62 34.6077L40.6875 22.3932L21.3125 34.6077Z" fill="white" fill-opacity="0.42" />
	</g>
	<defs>
		<clipPath id="clip0">
			<rect width="246" height="82" fill="white" />
		</clipPath>
	</defs>
</svg>
