<?xml version="1.0" encoding="UTF-8"?>
<svg width="16px" height="16px" viewBox="0 0 16 16" version="1.1" xmlns="http://www.w3.org/2000/svg" xmlns:xlink="http://www.w3.org/1999/xlink">
    <!-- Generator: Sketch 53.2 (72643) - https://sketchapp.com -->
    <title>market</title>
    <desc>Created with Sketch.</desc>
    <g id="Page-1" stroke="none" stroke-width="1" fill="none" fill-rule="evenodd" opacity="0.6">
        <g id="Dashboard01_new01" transform="translate(-55.000000, -479.000000)">
            <g id="icon/reviews" transform="translate(55.000000, 479.000000)">
                <g id="Path">
                    <path d="M0.910813805,14.1203955 L3.72349095,13.7668398 L3.97630972,13.9442139 C5.1365378,14.7582137 6.5056823,15.2 7.94014736,15.2 C11.8165972,15.2 14.9662343,11.9803709 14.9662343,8 C14.9662343,4.01962909 11.8165972,0.8 7.94014736,0.8 C4.06363468,0.8 0.914060406,4.01951539 0.914060406,8 C0.914060406,9.10419044 1.15660024,10.1714788 1.61708217,11.1425638 L1.75100816,11.4249929 L1.65798939,11.7234052 L0.910813805,14.1203955 Z" stroke="#FFFFFF" stroke-width="1.6" fill-rule="nonzero"></path>
                    <path d="M11.5639524,6.71446736 L9.75887462,6.08436344 L9.06496311,4.30424492 C8.9335665,3.96407274 8.61654611,3.89944362 8.35694272,4.15963877 L6.98175636,5.52920052 L5.1563127,5.40605747 C4.78531051,5.37991805 4.59220288,5.63399801 4.72507172,5.97357066 L5.49811564,7.96891973 L4.91363997,9.76114871 C4.79954207,10.1071963 5.00626783,10.3509644 5.37530705,10.3052803 L7.5073428,10.0489221 L9.35597409,11.1182403 C9.67557089,11.3043338 9.96486426,11.1620058 10.0021608,10.8003705 L10.200912,8.92912376 L11.7266339,7.40320512 C11.9875869,7.14408912 11.9145887,6.83569192 11.5639524,6.71446736 Z" fill="#FFFFFF" fill-rule="nonzero"></path>
                </g>
            </g>
        </g>
    </g>
</svg>