<?xml version="1.0" encoding="UTF-8"?>
<svg width="16px" height="16px" viewBox="0 0 16 16" version="1.1" xmlns="http://www.w3.org/2000/svg" xmlns:xlink="http://www.w3.org/1999/xlink">
    <!-- Generator: Sketch 53.2 (72643) - https://sketchapp.com -->
    <title>staking</title>
    <desc>Created with Sketch.</desc>
    <g id="Page-1" stroke="none" stroke-width="1" fill="none" fill-rule="evenodd" fill-opacity="0.5">
        <g id="Dashboard01_new01" transform="translate(-55.000000, -575.000000)" fill="#FFFFFF" fill-rule="nonzero">
            <g id="staking" transform="translate(55.000000, 575.000000)">
                <path d="M8,14.9565217 C11.842087,14.9565217 14.9565217,11.842087 14.9565217,8 C14.9565217,4.15791305 11.842087,1.04347827 8,1.04347827 C4.15791305,1.04347827 1.04347827,4.15791305 1.04347827,8 C1.04347827,11.842087 4.15791305,14.9565217 8,14.9565217 Z M8,16 C3.58191305,16 0,12.418087 0,8 C0,3.58191305 3.58191305,0 8,0 C12.418087,0 16,3.58191305 16,8 C16,12.418087 12.418087,16 8,16 Z" id="Shape"></path>
                <path d="M11.3043478,10.4347826 L4,10.4347826 C3.65217392,10.4347826 3.47826088,10.2608696 3.47826088,9.91304348 L3.47826088,9.91304348 C3.47826088,9.5652174 3.65217392,9.39130435 4,9.39130434 L11.3043478,9.39130434 C11.6521739,9.39130434 11.826087,9.56521739 11.826087,9.91304348 L11.826087,9.91304348 C11.826087,10.2608696 11.6521739,10.4347826 11.3043478,10.4347826 Z" id="Path"></path>
                <path d="M5.79149344,12.449344 L3.70091688,10.3587674 C3.45496669,10.1128172 3.45496669,9.86686705 3.70091688,9.62091688 L3.70091688,9.62091688 C3.94686706,9.37496669 4.19281724,9.37496669 4.43876742,9.62091688 L6.529344,11.7114934 C6.77529419,11.9574436 6.77529419,12.2033938 6.529344,12.449344 L6.529344,12.449344 C6.28339381,12.6952942 6.03744363,12.6952942 5.79149344,12.449344 Z" id="Path"></path>
                <path d="M4,6.26086956 L11.3043478,6.26086956 C11.6521739,6.26086956 11.826087,6.43478261 11.826087,6.7826087 L11.826087,6.7826087 C11.826087,7.13043479 11.6521739,7.30434783 11.3043478,7.30434783 L4,7.30434783 C3.65217392,7.30434783 3.47826088,7.13043479 3.47826088,6.7826087 L3.47826088,6.7826087 C3.47826088,6.43478262 3.65217392,6.26086957 4,6.26086956 Z" id="Path"></path>
                <path d="M9.45441959,4.19482992 L11.5449962,6.28540648 C11.7909464,6.53135667 11.7909464,6.77730686 11.5449962,7.02325705 L11.5449962,7.02325705 C11.299046,7.26920723 11.0530958,7.26920723 10.8071456,7.02325705 L8.71656905,4.93268047 C8.47061886,4.68673028 8.47061886,4.4407801 8.71656905,4.19482992 L8.71656905,4.19482992 C8.96251923,3.94887973 9.20846942,3.94887973 9.45441959,4.19482992 L9.45441959,4.19482992 Z" id="Path"></path>
            </g>
        </g>
    </g>
</svg>