<svg width="214" height="217" viewBox="0 0 214 217" fill="none" xmlns="http://www.w3.org/2000/svg">
	<g opacity="0.3">
		<path d="M120.136 105.01C121.938 105.143 123.706 104.849 125.306 104.253L120.056 123.845C119.416 126.234 116.807 127.63 114.258 126.947L77.189 117.015C74.6405 116.332 73.0792 113.818 73.7194 111.429L80.7033 85.3645C81.3435 82.9753 83.9524 81.5792 86.5009 82.262L109.901 88.5321C109.576 89.1899 109.285 89.9035 109.087 90.642C108.889 91.3805 108.784 92.1438 108.737 92.8761L85.3369 86.6061L100.962 102.433L110.797 99.737C111.636 100.963 112.718 102.021 114.003 102.877L99.7976 106.777L84.173 90.9502L78.353 112.67L115.422 122.603L120.136 105.01ZM113.721 91.8836C112.755 95.4892 115.08 99.2315 118.925 100.262C122.771 101.293 126.656 99.2139 127.622 95.6084C128.588 92.0028 126.263 88.2604 122.417 87.2299C118.571 86.1994 114.687 88.278 113.721 91.8836Z" fill="white" />
		<path d="M85.1252 16.6885C84.4301 15.7575 83.6336 14.5269 81.7821 13.7765C80.0492 13.0579 77.8964 13.7707 76.4458 14.2357C74.9952 14.7008 72.0297 16.4129 70.8729 16.8659C69.7162 17.3188 67.0647 17.3168 62.4417 18.6393C57.8186 19.9617 39.5044 25.8079 39.5044 25.8079L43.5582 26.9486L22.9219 31.4278L24.7354 31.9137L21.5941 33.1973C21.5941 33.1973 23.7355 34.425 25.9945 33.7224L25.8446 34.2817C25.8446 34.2817 49.7158 31.5593 53.2946 34.8797L50.5526 34.9442C50.7729 35.0032 54.8017 36.3734 54.8017 36.3734C54.8017 36.3734 54.2515 38.9688 56.2854 41.2757C58.3238 43.5657 58.134 44.4776 58.134 44.4776C58.134 44.4776 56.7052 44.6579 56.5281 45.3188C56.5281 45.3188 58.5806 45.2512 60.3296 45.7743C62.0785 46.2975 63.4936 47.1852 63.4936 47.1852C63.4936 47.1852 63.5488 46.4371 61.9642 45.5039C60.3672 44.5492 59.1844 42.2523 58.6264 41.013C58.0684 39.7736 57.9781 37.8058 59.1758 36.1831C60.1822 34.7998 62.4769 34.5064 67.3381 33.4475C73.0709 32.1863 74.7411 30.5631 75.857 29.2454C76.973 27.9278 78.8276 25.2096 79.7977 23.9619C81.0293 22.3483 82.2033 21.6275 83.1203 21.2556C84.0204 20.8792 87.7675 20.5209 87.7675 20.5209C87.7675 20.5209 85.7785 17.572 85.1252 16.6885Z" fill="white" />
		<path d="M31.4484 118.806C21.283 116.126 10.8572 122.148 8.09451 132.295C7.54939 134.33 7.33618 136.438 7.46209 138.54C7.58989 139.982 8.8241 141.071 10.2692 141.023C11.6937 140.873 12.7578 139.645 12.7001 138.213C12.5573 136.563 12.7419 134.902 13.2417 133.324C15.4291 126.047 23.0991 121.919 30.374 124.105C37.6488 126.292 41.774 133.964 39.5867 141.242C37.5384 148.055 30.6361 152.184 23.6658 150.764C23.6658 150.764 21.0384 150.229 19.7104 150.042C19.2183 149.983 18.7232 149.95 18.2273 149.944C18.143 149.995 18.0362 149.966 17.9859 149.882L17.9845 149.879C17.954 149.807 17.9769 149.721 18.0397 149.673L19.025 147.597L24.38 137.323C25.0368 136.037 24.5283 134.462 23.2429 133.805C21.9575 133.148 20.3826 133.657 19.7258 134.943C19.7258 134.943 6.78666 160.134 6.72158 160.377C6.04308 161.589 6.47374 163.12 7.68465 163.799C7.6972 163.806 7.7117 163.814 7.72478 163.82L7.8588 163.856C9.0662 164.54 10.6002 164.114 11.282 162.905C11.2936 162.885 11.3051 162.865 11.3153 162.843C11.3223 162.801 11.3333 162.761 11.3476 162.723C11.5038 162.427 13.1854 159.065 13.1854 159.065C14.4566 156.527 17.1717 155.049 19.9907 155.359C20.5711 155.423 22.9557 155.893 22.9557 155.893C33.3416 157.595 43.1417 150.552 44.8432 140.161C46.3956 130.685 40.6565 121.531 31.4484 118.806Z" fill="white" />
		<path d="M21.1825 161.586C19.6145 160.796 17.7048 161.427 16.9145 162.994C16.9064 163.008 16.9003 163.023 16.8923 163.038C16.0909 164.591 16.6991 166.502 18.2537 167.303C18.2557 167.304 18.2576 167.304 18.259 167.307L18.3445 167.33C19.8559 168.153 21.7482 167.594 22.5693 166.084C22.5763 166.073 22.5819 166.06 22.5889 166.049L22.6342 165.88C23.3664 164.29 22.7305 162.405 21.1825 161.586Z" fill="white" />
		<path d="M176.825 64.532C176.837 64.554 176.896 64.6814 176.902 64.6829C176.879 64.6767 176.834 64.4726 176.857 64.5965C176.868 64.6489 176.883 64.7088 176.901 64.757C176.945 64.8929 176.876 64.6389 176.891 64.6551C176.932 64.6849 176.891 64.8847 176.895 64.9414C176.904 65.068 176.905 64.8326 176.914 64.8226C176.886 64.8585 176.881 64.9688 176.867 65.0209C176.785 65.3028 176.965 64.8859 176.856 65.0613C176.825 65.1088 176.799 65.1577 176.776 65.2009C176.752 65.2441 176.666 65.308 176.772 65.2125C176.936 65.0641 176.634 65.3119 176.641 65.3323C176.634 65.3119 176.888 65.1752 176.681 65.2996C176.659 65.3123 176.63 65.3292 176.606 65.3477C176.377 65.4848 176.144 65.6145 175.909 65.75C175.014 66.2667 174.119 66.7834 173.217 67.3043C173.107 67.3678 172.997 67.4313 172.887 67.4948C172.85 67.516 172.814 67.5372 172.779 67.5526C172.589 67.6569 172.951 67.5119 172.745 67.5622C172.751 67.5637 172.59 67.6075 172.586 67.6002C172.596 67.6091 172.843 67.5885 172.652 67.5868C172.602 67.5859 172.541 67.582 172.49 67.587C172.358 67.5949 172.417 67.5116 172.567 67.6013C172.514 67.5685 172.398 67.5622 172.334 67.5451C172.103 67.4831 172.417 67.561 172.405 67.5826C172.403 67.5884 172.248 67.4972 172.264 67.5076C172.226 67.4852 172.196 67.4585 172.163 67.4434C172.045 67.3746 172.353 67.637 172.184 67.4554C172.156 67.423 172.127 67.3905 172.097 67.3639C172.001 67.2824 172.156 67.423 172.15 67.4461C172.151 67.4403 172.066 67.3183 172.058 67.3037C172.054 67.2963 172.049 67.289 172.045 67.2817C171.857 66.9647 171.677 66.6435 171.49 66.3207C170.563 64.7143 169.635 63.1079 168.708 61.5015C167.598 59.5796 166.484 57.6505 165.375 55.7286C164.752 54.6503 164.127 53.5836 163.511 52.5011C163.495 52.4718 163.478 52.4424 163.466 52.4146C163.464 52.4015 163.416 52.3019 163.41 52.3004C163.441 52.3023 163.489 52.5632 163.441 52.3459C163.433 52.3066 163.427 52.2614 163.412 52.2263C163.359 52.0758 163.415 52.4443 163.419 52.2903C163.417 52.2278 163.443 52.0612 163.421 52.0056C163.424 52.0187 163.369 52.2459 163.407 52.126C163.424 52.0623 163.443 51.9929 163.46 51.9293C163.507 51.731 163.339 52.151 163.483 51.8919C163.505 51.8545 163.526 51.8229 163.548 51.7855C163.631 51.6401 163.588 51.821 163.504 51.8356C163.53 51.8302 163.758 51.5566 163.627 51.7011C163.523 51.8098 163.671 51.6757 163.722 51.646C163.795 51.6037 163.869 51.5613 163.935 51.5232C164.808 51.0193 165.681 50.5153 166.553 50.0113C166.847 49.8419 167.14 49.6725 167.434 49.5031C167.47 49.4819 167.507 49.4608 167.542 49.4454C167.702 49.358 167.528 49.4974 167.494 49.4635C167.498 49.4708 167.602 49.4304 167.615 49.4277C167.636 49.4208 167.724 49.4136 167.735 49.3978C167.575 49.4169 167.543 49.4207 167.631 49.4135C167.658 49.4081 167.688 49.4101 167.713 49.4105C167.769 49.4071 167.823 49.4152 167.874 49.4103C168.012 49.4039 167.75 49.4082 167.755 49.3908C167.758 49.3793 167.992 49.4544 168.027 49.4637C168.15 49.4905 167.926 49.4242 167.916 49.4153C167.934 49.4389 168.025 49.4695 168.057 49.4904C168.089 49.5112 168.17 49.5765 168.195 49.5769C168.134 49.573 168.026 49.4201 168.142 49.5441C168.156 49.5603 168.258 49.6681 168.258 49.6681C168.244 49.6708 168.136 49.4742 168.204 49.5916C168.225 49.6283 168.256 49.6739 168.273 49.7032C168.277 49.7105 168.281 49.7179 168.286 49.7252C168.307 49.7619 168.328 49.7986 168.349 49.8352C168.442 49.9966 168.535 50.158 168.629 50.3194C169.493 51.8157 170.352 53.3048 171.216 54.8012C172.343 56.7524 173.465 58.6962 174.592 60.6474C175.307 61.8871 176.023 63.1267 176.739 64.3664C176.753 64.4073 176.792 64.4675 176.825 64.532C177.138 65.0748 177.915 65.3203 178.462 64.9707C179.008 64.621 179.235 63.913 178.9 63.3335C178.35 62.3799 177.799 61.4263 177.245 60.4654C176.101 58.4849 174.953 56.497 173.81 54.5165C172.836 52.8294 171.866 51.1496 170.892 49.4625C170.706 49.1398 170.521 48.8112 170.333 48.4942C169.888 47.7487 169.14 47.1826 168.278 47.0447C167.493 46.921 166.773 47.0876 166.09 47.4815C165.195 47.9981 164.301 48.5148 163.413 49.0272C163.12 49.1966 162.82 49.3645 162.525 49.5397C161.632 50.0753 161.089 50.9654 161.015 52.0058C160.958 52.7967 161.309 53.4549 161.686 54.1077C162.029 54.7019 162.376 55.3033 162.719 55.8975C163.833 57.8267 164.947 59.7559 166.056 61.6777C167.094 63.4748 168.132 65.272 169.169 67.0691C169.419 67.5019 169.669 67.9347 169.919 68.3674C170.749 69.8052 172.441 70.3639 173.951 69.6338C174.714 69.2617 175.438 68.7799 176.172 68.3564C177.074 67.8355 178.153 67.3742 178.782 66.5073C179.458 65.5787 179.445 64.3102 178.908 63.3293C178.609 62.778 177.808 62.5509 177.271 62.8906C176.704 63.2471 176.505 63.944 176.825 64.532Z" fill="white" />
		<path d="M198.456 52.043C198.469 52.065 198.528 52.1924 198.534 52.1939C198.511 52.1877 198.466 51.9836 198.489 52.1074C198.499 52.1599 198.514 52.2197 198.532 52.268C198.577 52.4039 198.508 52.1499 198.523 52.1661C198.564 52.1959 198.523 52.3957 198.526 52.4524C198.536 52.579 198.537 52.3436 198.546 52.3336C198.518 52.3694 198.513 52.4798 198.499 52.5318C198.417 52.8138 198.597 52.3969 198.488 52.5723C198.457 52.6198 198.431 52.6687 198.407 52.7119C198.383 52.7551 198.298 52.819 198.404 52.7235C198.568 52.5751 198.266 52.8228 198.273 52.8433C198.266 52.8228 198.52 52.6862 198.313 52.8106C198.291 52.8233 198.261 52.8402 198.238 52.8587C198.009 52.9958 197.776 53.1255 197.541 53.261C196.646 53.7777 195.751 54.2944 194.849 54.8153C194.739 54.8788 194.629 54.9423 194.519 55.0058C194.482 55.027 194.445 55.0482 194.41 55.0636C194.221 55.1679 194.582 55.0229 194.377 55.0732C194.383 55.0747 194.222 55.1185 194.218 55.1112C194.228 55.1201 194.475 55.0995 194.283 55.0978C194.234 55.0969 194.173 55.093 194.122 55.098C193.99 55.1059 194.049 55.0226 194.199 55.1123C194.146 55.0795 194.03 55.0732 193.966 55.0561C193.735 54.9941 194.048 55.072 194.036 55.0936C194.035 55.0994 193.88 55.0082 193.895 55.0186C193.858 54.9962 193.828 54.9695 193.795 54.9544C193.677 54.8856 193.985 55.1479 193.816 54.9664C193.788 54.934 193.759 54.9015 193.729 54.8749C193.633 54.7934 193.788 54.934 193.782 54.9571C193.783 54.9513 193.698 54.8293 193.69 54.8147C193.685 54.8073 193.681 54.8 193.677 54.7926C193.489 54.4757 193.308 54.1545 193.122 53.8317C192.195 52.2253 191.267 50.6189 190.34 49.0125C189.23 47.0906 188.116 45.1614 187.007 43.2396C186.384 42.1613 185.759 41.0946 185.143 40.0121C185.126 39.9827 185.109 39.9534 185.098 39.9256C185.096 39.9125 185.048 39.8129 185.042 39.8114C185.073 39.8133 185.12 40.0742 185.073 39.8569C185.065 39.8176 185.059 39.7724 185.043 39.7373C184.991 39.5868 185.047 39.9553 185.051 39.8013C185.049 39.7388 185.075 39.5722 185.053 39.5166C185.056 39.5297 185.001 39.7569 185.039 39.637C185.056 39.5733 185.075 39.5039 185.092 39.4403C185.139 39.242 184.971 39.662 185.114 39.4029C185.137 39.3655 185.158 39.3339 185.18 39.2965C185.262 39.1511 185.22 39.332 185.136 39.3466C185.162 39.3412 185.39 39.0676 185.258 39.2121C185.155 39.3207 185.302 39.1867 185.354 39.157C185.427 39.1147 185.501 39.0723 185.567 39.0342C186.439 38.5302 187.312 38.0263 188.185 37.5223C188.479 37.3529 188.772 37.1835 189.065 37.0141C189.102 36.9929 189.139 36.9718 189.174 36.9564C189.334 36.869 189.16 37.0084 189.126 36.9744C189.13 36.9818 189.234 36.9414 189.247 36.9387C189.267 36.9318 189.356 36.9246 189.367 36.9088C189.206 36.9279 189.174 36.9317 189.263 36.9244C189.289 36.9191 189.32 36.921 189.345 36.9215C189.401 36.9181 189.455 36.9262 189.506 36.9213C189.644 36.9149 189.382 36.9192 189.387 36.9018C189.39 36.8903 189.624 36.9654 189.659 36.9747C189.782 37.0015 189.558 36.9352 189.548 36.9263C189.566 36.9499 189.657 36.9805 189.689 37.0013C189.721 37.0222 189.802 37.0875 189.827 37.0879C189.766 37.084 189.658 36.9311 189.774 37.0551C189.788 37.0713 189.889 37.1791 189.889 37.1791C189.876 37.1817 189.768 36.9852 189.835 37.1026C189.857 37.1393 189.888 37.1848 189.905 37.2142C189.909 37.2215 189.913 37.2289 189.917 37.2362C189.939 37.2729 189.96 37.3095 189.981 37.3462C190.074 37.5076 190.167 37.669 190.26 37.8303C191.124 39.3267 191.984 40.8158 192.848 42.3122C193.975 44.2634 195.097 46.2072 196.223 48.1584C196.939 49.3981 197.655 50.6377 198.371 51.8774C198.384 51.9183 198.418 51.977 198.456 52.043C198.77 52.5858 199.547 52.8313 200.094 52.4817C200.64 52.132 200.867 51.424 200.532 50.8445C199.982 49.8909 199.431 48.9373 198.876 47.9764C197.733 45.9959 196.585 44.008 195.442 42.0275C194.468 40.3404 193.498 38.6606 192.524 36.9735C192.337 36.6507 192.153 36.3222 191.965 36.0052C191.52 35.2597 190.772 34.6936 189.91 34.5556C189.125 34.432 188.404 34.5986 187.722 34.9924C186.827 35.5091 185.932 36.0258 185.045 36.5382C184.751 36.7076 184.452 36.8755 184.157 37.0507C183.264 37.5862 182.721 38.4764 182.647 39.5168C182.59 40.3076 182.941 40.9658 183.318 41.6187C183.661 42.2128 184.008 42.8143 184.351 43.4085C185.465 45.3377 186.579 47.2668 187.688 49.1887C188.726 50.9858 189.763 52.783 190.801 54.5801C191.051 55.0129 191.301 55.4457 191.551 55.8784C192.381 57.3162 194.072 57.8749 195.583 57.1448C196.346 56.7727 197.07 56.2909 197.804 55.8674C198.706 55.3465 199.784 54.8852 200.413 54.0183C201.09 53.0897 201.077 51.8212 200.54 50.8402C200.241 50.289 199.44 50.0619 198.902 50.4016C198.334 50.7639 198.136 51.455 198.456 52.043Z" fill="white" />
		<path d="M191.114 52.7418C189.25 53.8175 187.395 54.889 185.531 55.9646C183.661 57.0446 181.79 58.1245 179.927 59.2002C178.732 59.8905 177.529 60.5851 176.333 61.2754C176.877 61.4211 177.426 61.5683 177.97 61.714C177.216 60.4084 176.462 59.1027 175.704 57.7897C174.502 55.7065 173.299 53.6232 172.092 51.5327C171.812 51.0486 171.537 50.5718 171.258 50.0877C171.112 50.6315 170.965 51.181 170.819 51.7248C172.484 50.7635 174.149 49.8021 175.814 48.8408C178.47 47.3077 181.125 45.7746 183.773 44.2458C184.382 43.8943 184.991 43.5428 185.6 43.1913C185.056 43.0456 184.506 42.8983 183.962 42.7526C184.716 44.0583 185.47 45.364 186.228 46.677C187.431 48.7602 188.634 50.8434 189.841 52.9339C190.12 53.4181 190.395 53.8949 190.675 54.379C190.988 54.9218 191.766 55.1673 192.312 54.8177C192.858 54.468 193.085 53.76 192.751 53.1805C191.997 51.8748 191.243 50.5691 190.485 49.2561C189.282 47.1729 188.079 45.0897 186.873 42.9991C186.593 42.515 186.318 42.0382 186.038 41.5541C185.716 40.9966 184.966 40.7893 184.401 41.1154C182.736 42.0768 181.071 43.0381 179.406 43.9995C176.75 45.5325 174.095 47.0656 171.447 48.5944C170.838 48.946 170.229 49.2975 169.62 49.649C169.063 49.9708 168.856 50.7213 169.182 51.2862C169.936 52.5918 170.689 53.8975 171.448 55.2105C172.65 57.2937 173.853 59.377 175.06 61.4675C175.339 61.9516 175.615 62.4284 175.894 62.9126C176.216 63.47 176.967 63.6773 177.531 63.3512C179.321 62.3179 181.111 61.2845 182.901 60.2512C184.881 59.1078 186.862 57.9643 188.85 56.8166C190.009 56.1475 191.16 55.4826 192.319 54.8134C192.862 54.5001 193.108 53.7226 192.758 53.1763C192.401 52.6342 191.693 52.4072 191.114 52.7418Z" fill="white" />
		<path d="M198.705 83.6268C198.641 83.6591 198.576 83.6915 198.51 83.7296C198.365 83.8085 198.712 83.672 198.553 83.71C198.485 83.7292 198.242 83.757 198.186 83.804C198.267 83.7328 198.396 83.7858 198.246 83.7891C198.189 83.7925 198.139 83.7974 198.083 83.795C198.015 83.7953 197.948 83.7899 197.874 83.7886C197.783 83.7827 197.819 83.7862 197.987 83.8065C197.945 83.8014 197.905 83.7906 197.864 83.7797C197.83 83.7704 197.512 83.7041 197.507 83.6778C197.504 83.6647 197.791 83.8221 197.575 83.7022C197.526 83.6767 197.477 83.6512 197.428 83.6257C197.379 83.6001 197.333 83.5631 197.29 83.5391C197.06 83.403 197.421 83.6735 197.304 83.5553C197.266 83.514 197.218 83.4827 197.18 83.4413C197.156 83.4162 196.95 83.2123 197.077 83.3394C197.188 83.456 197.008 83.2278 196.974 83.1691C196.97 83.1618 196.961 83.1471 196.957 83.1398C196.931 83.0958 196.91 83.0591 196.885 83.0151C196.631 82.575 196.377 82.1348 196.123 81.6947C195.051 79.8389 193.98 77.9831 192.904 76.1199C191.498 73.6599 190.081 71.1968 188.657 68.738C187.39 66.5447 186.12 64.3441 184.854 62.1509C184.227 61.0653 183.638 59.9527 182.969 58.8867C182.961 58.872 182.952 58.8574 182.944 58.8427C182.798 59.3865 182.651 59.9361 182.505 60.4799C183.921 59.6625 185.344 58.8409 186.759 58.0236C186.216 57.8779 185.666 57.7306 185.122 57.5849C185.639 58.4798 186.156 59.3747 186.672 60.2696C187.888 62.3748 189.103 64.48 190.323 66.5926C191.75 69.0646 193.181 71.5439 194.609 74.0159C195.748 75.9891 196.887 77.9622 198.026 79.9354C198.335 80.4709 198.645 81.0064 198.958 81.5492C199.021 81.6592 199.085 81.7693 199.149 81.8793C199.153 81.8866 199.157 81.894 199.161 81.9013C199.161 81.9013 199.161 81.9013 199.165 81.9086C199.177 81.9364 199.142 81.8588 199.206 81.9878C199.227 82.0244 199.247 82.0669 199.262 82.102C199.297 82.1796 199.286 82.1518 199.229 82.0187C199.22 82.0287 199.311 82.3135 199.322 82.3413C199.397 82.5968 199.317 82.1538 199.321 82.3224C199.322 82.3907 199.328 82.4605 199.334 82.5303C199.331 82.5855 199.329 82.6407 199.327 82.6958C199.323 82.8251 199.261 82.7776 199.339 82.6249C199.285 82.7344 199.277 82.9057 199.24 83.0198C199.17 83.2555 199.266 82.9462 199.27 82.9535C199.278 82.9682 199.189 83.1177 199.177 83.1393C199.151 83.1883 199.12 83.2357 199.089 83.2831C198.992 83.437 199.094 83.4024 199.105 83.2689C199.096 83.3472 198.924 83.4562 198.873 83.5105C198.726 83.6635 198.897 83.5109 198.917 83.4851C198.876 83.5425 198.771 83.5887 198.705 83.6268C198.167 83.9475 197.913 84.7103 198.266 85.264C198.612 85.803 199.328 86.0446 199.904 85.7027C201.662 84.6485 202.212 82.4088 201.197 80.6425C200.973 80.2538 200.749 79.865 200.524 79.4762C199.474 77.6571 198.424 75.8379 197.373 74.0188C195.933 71.5248 194.493 69.0308 193.054 66.5368C191.758 64.2922 190.462 62.0477 189.17 59.8104C188.522 58.6881 187.898 57.5473 187.222 56.4362C187.213 56.4215 187.205 56.4068 187.196 56.3922C186.875 55.8347 186.124 55.6274 185.559 55.9535C184.144 56.7708 182.721 57.5924 181.305 58.4098C180.747 58.7317 180.54 59.4822 180.866 60.047C181.4 60.9712 181.933 61.8955 182.467 62.8197C183.712 64.9763 184.953 67.1255 186.198 69.2821C187.651 71.7981 189.099 74.3067 190.552 76.8227C191.678 78.7739 192.8 80.7178 193.927 82.6689C194.211 83.1604 194.499 83.6592 194.782 84.1507C194.825 84.224 194.866 84.3031 194.914 84.3781C195.572 85.4845 196.734 86.168 198.021 86.2027C198.679 86.224 199.331 86.033 199.906 85.7158C200.453 85.4098 200.69 84.6176 200.345 84.0786C199.988 83.5118 199.295 83.3011 198.705 83.6268Z" fill="white" />
		<path d="M177.09 81.7538C175.962 81.4515 174.834 81.1492 173.706 80.847C171.131 80.1572 168.551 79.4658 165.977 78.776C163.101 78.0056 160.226 77.2352 157.357 76.4663C155.367 75.9331 153.371 75.3983 151.381 74.865C151.155 74.8046 150.935 74.7457 150.71 74.6852C150.606 74.6573 150.329 74.5335 150.634 74.6898C150.546 74.6476 150.529 74.5747 150.7 74.7446C150.871 74.9146 150.802 74.896 150.757 74.8095C150.781 74.8593 150.799 74.9076 150.823 74.9573C150.842 75.1422 150.845 75.1742 150.837 75.0419C150.836 75.0476 150.819 75.2043 150.819 75.2043C150.845 75.1742 150.851 75.0828 150.862 75.0423C150.936 74.7646 151.011 74.4869 151.084 74.215C151.253 73.5844 151.422 72.9538 151.591 72.3233C151.597 72.3001 151.63 72.2222 151.623 72.2018C151.634 72.2296 151.478 72.4666 151.594 72.287C151.528 72.3934 151.471 72.4462 151.367 72.5113C151.546 72.398 151.25 72.5296 151.202 72.5477C151.094 72.5561 151.093 72.5619 151.199 72.5593C151.032 72.5332 150.979 72.5251 151.036 72.5406C151.046 72.5495 151.088 72.5545 151.1 72.5576C151.253 72.611 151.412 72.6413 151.569 72.6832C152.274 72.8723 152.986 73.063 153.692 73.2521C156.15 73.9109 158.615 74.5712 161.074 75.23C163.984 76.0097 166.893 76.7895 169.803 77.5692C171.961 78.1474 174.113 78.724 176.271 79.3022C176.705 79.4185 177.147 79.5741 177.59 79.6556C177.667 79.67 177.739 79.7264 177.492 79.6046C177.684 79.6993 177.422 79.5177 177.382 79.4822C177.37 79.4602 177.351 79.4366 177.337 79.4204C177.4 79.5304 177.389 79.5026 177.309 79.3386C177.3 79.305 177.298 79.0565 177.295 79.2541C177.303 79.2004 177.305 79.1453 177.315 79.0859C177.291 79.1044 177.279 79.2189 177.272 79.2479C177.096 79.9016 176.921 80.5553 176.746 81.209C176.679 81.4578 176.613 81.7065 176.546 81.9553C176.54 81.9784 176.498 82.0663 176.51 82.0884C176.508 82.0752 176.622 81.8578 176.56 81.9715C176.505 82.0621 176.738 81.7958 176.767 81.7789C176.603 81.8836 176.815 81.7608 176.849 81.7512C176.9 81.7462 176.958 81.737 177.009 81.7321C176.865 81.7369 176.896 81.7389 177.09 81.7538C176.479 81.6273 175.768 81.9451 175.623 82.6008C175.491 83.2102 175.813 83.9289 176.47 84.0678C177.473 84.2809 178.462 83.7832 178.791 82.7863C178.849 82.6158 178.89 82.4407 178.938 82.2614C179.123 81.573 179.307 80.8845 179.491 80.1961C179.535 80.0341 179.586 79.8679 179.623 79.7044C179.854 78.7058 179.329 77.7033 178.342 77.383C178.239 77.3493 178.135 77.3214 178.031 77.2935C176.365 76.8471 174.693 76.3991 173.027 75.9527C170.146 75.1807 167.265 74.4087 164.39 73.6383C161.601 72.8912 158.807 72.1425 156.018 71.3953C154.589 71.0124 153.159 70.6106 151.72 70.2436C150.687 69.9792 149.651 70.5139 149.326 71.5428C149.165 72.0515 149.05 72.5725 148.912 73.0874C148.774 73.6023 148.613 74.111 148.498 74.632C148.265 75.6858 148.895 76.6668 149.922 76.9543C151.346 77.3546 152.786 77.7216 154.22 78.1061C157.009 78.8532 159.803 79.6019 162.591 80.3491C165.472 81.1211 168.353 81.893 171.229 82.6634C172.895 83.1099 174.567 83.5579 176.233 84.0043C176.314 84.026 176.395 84.0477 176.47 84.0678C177.077 84.2306 177.798 83.8534 177.937 83.2208C178.075 82.5883 177.738 81.9274 177.09 81.7538Z" fill="white" />
		<path d="M173.197 163.661L167.176 162.047L167.821 159.639C168.205 158.206 167.347 156.72 165.914 156.336C164.481 155.952 162.996 156.81 162.612 158.243L161.967 160.652L144.949 156.092L145.594 153.683C145.978 152.25 145.12 150.764 143.688 150.381C142.255 149.997 140.769 150.855 140.385 152.287L139.74 154.696L133.718 153.083C131.253 152.422 128.709 153.89 128.048 156.356L119.198 189.384C118.538 191.85 120.006 194.393 122.472 195.054L157.956 204.562C162.625 205.813 167.44 203.033 168.691 198.364L176.471 169.33C177.131 166.865 175.663 164.322 173.197 163.661ZM132.763 156.647L138.788 158.262C138.446 159.674 139.297 161.122 140.708 161.5C142.119 161.878 143.58 161.05 143.99 159.656L161.014 164.217C160.673 165.63 161.523 167.077 162.935 167.455C164.346 167.833 165.807 167.005 166.217 165.611L172.242 167.226C172.734 167.358 173.037 167.884 172.906 168.375L171.04 175.337L129.748 164.273L131.613 157.311C131.745 156.819 132.271 156.516 132.763 156.647ZM122.763 190.34L128.808 167.782L170.1 178.846L165.914 194.47L158.629 192.518L156.475 200.344L123.427 191.489C122.936 191.357 122.632 190.831 122.763 190.34ZM160.078 201.163L161.215 197.032L164.913 198.023C164.109 199.984 162.163 201.223 160.078 201.163Z" fill="white" />
		<path d="M136.946 178.981C137.401 177.352 138.303 176.314 139.452 175.768C140.595 175.242 141.967 175.204 143.343 175.573C146.908 176.528 147.449 179.235 147.135 180.409C146.356 183.316 144.732 182.881 144.716 182.941L144.705 182.98C144.663 183.14 146.674 183.679 145.847 186.765C145.394 188.457 143.55 190.823 139.526 189.745C134.003 188.265 135.16 183.879 135.525 182.868L138.877 183.766C138.662 184.499 138.672 185.098 138.911 185.546C139.123 186.094 139.593 186.391 140.21 186.556C141.216 186.826 141.963 186.578 142.267 185.443C142.593 184.228 141.822 183.787 141.011 183.57C140.499 183.432 140.236 183.426 139.96 183.396L140.686 180.687C140.945 180.778 141.212 180.914 141.688 181.041C142.429 181.24 143.412 181.312 143.7 180.237C143.935 179.36 143.144 178.785 142.42 178.592C141.467 178.336 140.536 178.705 140.262 179.87L136.945 178.981L136.946 178.981Z" fill="white" />
		<path d="M152.104 184.387L149.228 183.616L149.996 180.749C151.767 181.267 153.735 180.983 154.454 178.721L157.348 179.497L153.635 193.354L149.965 192.371L152.104 184.387Z" fill="white" />
	</g>
</svg>
